<svg xmlns="http://www.w3.org/2000/svg" width="500" height="750" viewBox="0 0 500 750"><rect width="100%" height="100%" fill="#DDDDDD"/><path fill="#999999" d="M138 343.585h8.41v51.33h-4.9q-1.13 0-1.9-.37-.76-.38-1.47-1.26l-26.8-34.23q.21 2.35.21 4.34v31.52h-8.41v-51.33h5q.6 0 1.05.05.44.05.78.21t.66.46q.32.31.71.8l26.91 34.37q-.11-1.25-.18-2.45-.07-1.21-.07-2.24zm34.57 14.34q4.05 0 7.37 1.31 3.32 1.32 5.68 3.73t3.64 5.89 1.28 7.78q0 4.33-1.28 7.81t-3.64 5.93-5.68 3.76-7.37 1.31q-4.08 0-7.42-1.31-3.33-1.31-5.69-3.76t-3.66-5.93-1.3-7.81q0-4.3 1.3-7.78t3.66-5.89 5.69-3.73q3.34-1.31 7.42-1.31m0 30.78q4.55 0 6.73-3.06 2.18-3.05 2.18-8.94t-2.18-8.98-6.73-3.09q-4.61 0-6.83 3.1-2.22 3.11-2.22 8.97t2.22 8.93 6.83 3.07m42.21-30.21h8.81v36.42h-8.81zm10.01-10.62q0 1.14-.46 2.13-.46 1-1.22 1.74-.77.75-1.79 1.19-1.03.44-2.21.44-1.13 0-2.14-.44-1.02-.44-1.76-1.19-.75-.74-1.19-1.74-.44-.99-.44-2.13 0-1.17.44-2.2t1.19-1.77q.74-.75 1.76-1.19 1.01-.45 2.14-.45 1.18 0 2.21.45 1.02.44 1.79 1.19.76.74 1.22 1.77t.46 2.2m16.51 47.04h-8.77v-36.42h5.36q1.71 0 2.24 1.59l.57 2.7q.96-1.06 2-1.95 1.05-.89 2.24-1.53t2.56-1.01q1.36-.37 3-.37 3.44 0 5.66 1.86 2.22 1.87 3.32 4.95.85-1.81 2.13-3.1 1.28-1.3 2.8-2.11 1.53-.82 3.25-1.21t3.46-.39q3.02 0 5.36.92 2.35.92 3.94 2.7 1.6 1.77 2.43 4.33.84 2.56.84 5.86v23.18h-8.77v-23.18q0-3.48-1.53-5.24-1.52-1.76-4.47-1.76-1.35 0-2.5.47-1.16.46-2.03 1.33t-1.36 2.18q-.5 1.31-.5 3.02v23.18h-8.8v-23.18q0-3.66-1.48-5.33-1.47-1.67-4.31-1.67-1.92 0-3.57.95-1.65.94-3.07 2.57zm69.94-9.41v-6.14q-3.8.18-6.39.66t-4.16 1.22q-1.56.75-2.23 1.74-.68 1-.68 2.17 0 2.3 1.37 3.3 1.37.99 3.57.99 2.7 0 4.67-.97 1.97-.98 3.85-2.97m-18.53-19.13-1.57-2.81q6.29-5.75 15.13-5.75 3.19 0 5.71 1.05t4.26 2.91 2.65 4.46q.9 2.59.9 5.68v23h-3.97q-1.25 0-1.92-.37-.67-.38-1.07-1.51l-.78-2.63q-1.38 1.24-2.69 2.18-1.32.95-2.74 1.58-1.42.64-3.03.98-1.62.34-3.57.34-2.31 0-4.26-.62t-3.37-1.87q-1.42-1.24-2.2-3.09-.79-1.84-.79-4.29 0-1.39.47-2.75.46-1.37 1.5-2.61 1.05-1.24 2.72-2.34 1.67-1.11 4.1-1.92 2.43-.82 5.66-1.33 3.23-.52 7.39-.62v-2.13q0-3.66-1.56-5.42-1.57-1.76-4.51-1.76-2.13 0-3.54.5-1.4.5-2.46 1.12-1.07.62-1.94 1.12t-1.93.5q-.93 0-1.56-.48-.64-.48-1.03-1.12m48.63 9.44q1.63 0 2.84-.44 1.21-.45 2.01-1.23t1.2-1.88q.41-1.1.41-2.41 0-2.7-1.61-4.28-1.62-1.58-4.85-1.58t-4.84 1.58q-1.62 1.58-1.62 4.28 0 1.27.41 2.38.41 1.1 1.21 1.89.79.8 2.02 1.25 1.22.44 2.82.44m9.91 20.73q0-1.06-.64-1.74-.64-.67-1.74-1.04-1.1-.38-2.58-.55-1.47-.18-3.12-.27t-3.41-.16-3.42-.28q-1.46.81-2.37 1.91-.9 1.1-.9 2.56 0 .96.48 1.79.48.84 1.53 1.44 1.04.6 2.71.94t4.08.34q2.45 0 4.23-.38 1.77-.37 2.93-1.02 1.15-.66 1.68-1.57.54-.9.54-1.97m-1.74-36.81h10.47v3.27q0 1.56-1.88 1.91l-3.27.61q.75 1.88.75 4.11 0 2.7-1.09 4.89-1.08 2.18-3 3.7-1.91 1.53-4.52 2.37-2.61.83-5.63.83-1.06 0-2.06-.11-.99-.1-1.95-.28-1.7 1.03-1.7 2.31 0 1.1 1.01 1.61 1.01.52 2.68.73t3.8.27q2.13.05 4.36.23 2.24.17 4.37.62 2.13.44 3.8 1.4t2.68 2.61 1.01 4.24q0 2.42-1.19 4.69t-3.44 4.05q-2.26 1.77-5.54 2.85-3.28 1.09-7.47 1.09-4.12 0-7.17-.8-3.06-.8-5.08-2.13t-3.02-3.07q-.99-1.74-.99-3.62 0-2.56 1.54-4.28 1.55-1.72 4.24-2.75-1.45-.75-2.3-1.99-.86-1.24-.86-3.27 0-.81.31-1.68.3-.87.88-1.73.59-.85 1.48-1.61.88-.76 2.09-1.37-2.77-1.49-4.35-3.97-1.58-2.49-1.58-5.83 0-2.69 1.09-4.88 1.08-2.18 3.01-3.72 1.94-1.55 4.58-2.37 2.65-.81 5.77-.81 2.34 0 4.4.48t3.77 1.4m22.93 12.78h16.54q0-1.7-.48-3.21t-1.43-2.65q-.96-1.13-2.44-1.79-1.47-.66-3.42-.66-3.8 0-5.98 2.17-2.19 2.16-2.79 6.14m22.36 5.29h-22.54q.21 2.8 1 4.84.78 2.05 2.05 3.38 1.28 1.33 3.04 1.99 1.76.65 3.89.65t3.67-.5q1.55-.49 2.7-1.1 1.15-.6 2.02-1.1.87-.49 1.69-.49 1.1 0 1.63.81l2.52 3.2q-1.45 1.7-3.26 2.86-1.81 1.15-3.78 1.84t-4.02.98q-2.04.28-3.95.28-3.8 0-7.07-1.26-3.26-1.26-5.68-3.73-2.41-2.46-3.8-6.1-1.38-3.64-1.38-8.43 0-3.73 1.21-7.01 1.2-3.29 3.46-5.72 2.25-2.43 5.5-3.85t7.33-1.42q3.44 0 6.35 1.1 2.92 1.1 5.01 3.21t3.28 5.19q1.19 3.07 1.19 7.01 0 1.98-.42 2.68-.43.69-1.64.69"/></svg>